<?xml version="1.0" encoding="utf-8"?>
<!-- Generator: Adobe Illustrator 16.0.0, SVG Export Plug-In . SVG Version: 6.00 Build 0)  -->
<!DOCTYPE svg PUBLIC "-//W3C//DTD SVG 1.1//EN" "http://www.w3.org/Graphics/SVG/1.1/DTD/svg11.dtd">
<svg version="1.1" id="Layer_1" xmlns="http://www.w3.org/2000/svg" xmlns:xlink="http://www.w3.org/1999/xlink" x="0px" y="0px"
	 width="1568px" height="1400px" viewBox="0 0 1568 1400" enable-background="new 0 0 1568 1400" xml:space="preserve">
<g>
	<path fill="#AEC5FF" d="M1568,1151.5V0H0v1142.8C729.2,1071.5,1337.5,1124.8,1568,1151.5z"/>
	<path fill="#FFFFFF" d="M384.7,252.8h-45.9c-2.2-25-22.9-44.7-48.4-44.7c-25.5,0-46.3,19.7-48.4,44.7H126.3
		c-17.4,0-31.4,14.1-31.4,31.4c0,17.4,14.1,31.4,31.4,31.4h25.5c4.4,16.5,19.3,28.8,37.3,28.8c17.9,0,32.9-12.3,37.3-28.8h158.5
		c17.3,0,31.4-14.1,31.4-31.4C416.2,266.9,402.1,252.8,384.7,252.8z"/>
	<path fill="#FFFFFF" d="M485.8,389.7c0,12.9-10.4,23.3-23.3,23.3H281.1c-12.9,0-23.3-10.4-23.3-23.3l0,0
		c0-12.9,10.4-23.3,23.3-23.3h181.5C475.4,366.4,485.8,376.9,485.8,389.7L485.8,389.7z"/>
	<path fill="#FFFFFF" d="M1374.5,413.9h-23.3c0.1-1.1,0.3-2.2,0.3-3.3c0-21.2-17.2-38.4-38.3-38.4c-21.2,0-38.4,17.2-38.4,38.4
		c0,1.1,0.2,2.2,0.3,3.3H1252c-15.6,0-28.2,12.6-28.2,28.2c0,15.6,12.6,28.2,28.2,28.2h122.6c15.6,0,28.2-12.6,28.2-28.2
		C1402.7,426.5,1390.1,413.9,1374.5,413.9z"/>
	<polygon fill="#98ADE0" points="1344.3,587.3 1267.9,513.9 1202.3,587.3 1143.5,647.9 1087,706.2 912.8,526.6 721.5,329.3 
		489.7,568.3 371,690.7 199.5,513.9 0,719.7 0,1169.6 347.5,1169.9 648.7,1170.2 647.9,1169.5 825.1,1169.4 825.1,1169.5 
		1567.8,1169.4 1567.8,1123.7 1567.8,817.7 	"/>
	<path fill="#FFFFFF" d="M868.3,625.1c0-21.7,17.6-39.4,39.4-39.4h240.5c21.8,0,39.4,17.6,39.4,39.4l0,0c0,21.7-17.6,39.4-39.4,39.4
		H907.7C885.9,664.5,868.3,646.8,868.3,625.1L868.3,625.1z"/>
	<path fill="#FFFFFF" d="M1014,491.7c0-19.1-15.5-34.5-34.5-34.5H841c-19.1,0-34.5,15.5-34.5,34.5l0,0c0,19.1,15.4,34.5,34.5,34.5
		h138.5C998.6,526.2,1014,510.8,1014,491.7L1014,491.7z"/>
	<path fill="#FFFFFF" d="M705.1,625.1c0,21.7,17.6,39.4,39.4,39.4c21.7,0,39.4-17.6,39.4-39.4c0-21.7-17.6-39.4-39.4-39.4
		C722.7,585.7,705.1,603.3,705.1,625.1z"/>
	<g>
		<rect x="1132.6" y="372.8" fill="#6C4B2C" width="76.3" height="750.6"/>
		<path fill="#82603B" d="M1107.6,477.8c3.4,15.3,17,26.7,33.3,26.7c16.3,0,29.9-11.4,33.4-26.7H1107.6z"/>
		<path fill="#82603B" d="M1107.6,609.4c3.4,15.3,17,26.7,33.3,26.7c16.3,0,29.9-11.4,33.4-26.7H1107.6z"/>
		<path fill="#82603B" d="M1107.6,741.1c3.4,15.3,17,26.7,33.3,26.7c16.3,0,29.9-11.4,33.4-26.7H1107.6z"/>
		<path fill="#82603B" d="M1107.6,872.7c3.4,15.3,17,26.7,33.3,26.7c16.3,0,29.9-11.4,33.4-26.7H1107.6z"/>
		<path fill="#82603B" d="M1107.6,1004.4c3.4,15.3,17,26.7,33.3,26.7c16.3,0,29.9-11.4,33.4-26.7H1107.6z"/>
		<path fill="#82603B" d="M1175.5,415.8c3.4,15.3,17,26.7,33.4,26.7c16.3,0,29.9-11.4,33.3-26.7H1175.5z"/>
		<path fill="#82603B" d="M1175.5,547.5c3.4,15.3,17,26.7,33.4,26.7c16.3,0,29.9-11.4,33.3-26.7H1175.5z"/>
		<path fill="#82603B" d="M1175.5,679.1c3.4,15.3,17,26.7,33.4,26.7c16.3,0,29.9-11.4,33.3-26.7H1175.5z"/>
		<path fill="#82603B" d="M1175.5,810.8c3.4,15.3,17,26.7,33.4,26.7c16.3,0,29.9-11.4,33.3-26.7H1175.5z"/>
		<path fill="#82603B" d="M1175.5,942.4c3.4,15.3,17,26.7,33.4,26.7c16.3,0,29.9-11.4,33.3-26.7H1175.5z"/>
		<path fill="#5CA14F" d="M1150.8,328.2c-24.4-24.4-24.4-64,0-88.4l106.7-106.8c24.4-24.4,64-24.4,88.4,0l22.1,22.1l-35.1,35.1
			L1291,173l17.2,41.9l-54.5,54.5l-41.9-17.2l17.2,41.9l-56.2,56.2L1150.8,328.2z"/>
		<path fill="#40784A" d="M1184.5,317.2c0-37.8-30.7-68.5-68.5-68.5H950.6c-37.8,0-68.5,30.7-68.5,68.5v34.2h54.4l19.1-45.8
			l19.1,45.8h84.5l19.1-45.8l19.1,45.8h87.1V317.2z"/>
		<path fill="#5CA14F" d="M1200.3,328.2c24.4-24.4,24.4-64,0-88.4l-106.8-106.8c-24.4-24.4-64-24.4-88.4,0l-22.1,22.1l35.1,35.1
			l41.9-17.2l-17.2,41.9l54.5,54.5l41.9-17.2l-17.2,41.9l56.2,56.2L1200.3,328.2z"/>
		<path fill="#40784A" d="M1166.6,317.2c0-37.8,30.7-68.5,68.5-68.5h165.5c37.8,0,68.5,30.7,68.5,68.5v34.2h-54.4l-19.1-45.8
			l-19.1,45.8h-84.5l-19.1-45.8l-19.1,45.8h-87.1V317.2z"/>
		<path fill="#5CA14F" d="M1212.5,316.2l-11.8-6.5c-33.1-18.2-74.8-6.2-93,27l-46.8,85c-18.2,33.1-6.2,74.8,27,93l11.8,6.5
			L1212.5,316.2z"/>
		<path fill="#5CA14F" d="M1138.6,316.2l11.8-6.5c33.1-18.2,74.8-6.2,93,27l46.8,85c18.2,33.1,6.2,74.8-26.9,93l-11.8,6.5
			L1138.6,316.2z"/>
		<path fill="#78763A" d="M1183.5,287.3c0,24.8-20.1,44.9-44.9,44.9c-24.8,0-44.9-20.1-44.9-44.9c0-24.8,20.1-44.9,44.9-44.9
			C1163.4,242.3,1183.5,262.5,1183.5,287.3z"/>
		<path fill="#695A34" d="M1252.3,300.1c0,28.4-23,51.4-51.4,51.4c-28.4,0-51.4-23-51.4-51.4c0-28.4,23-51.4,51.4-51.4
			C1229.3,248.8,1252.3,271.7,1252.3,300.1z"/>
	</g>
	<g>
		<rect x="1463.1" y="668.2" fill="#6C4B2C" width="51" height="502.3"/>
		<path fill="#82603B" d="M1446.4,738.5c2.3,10.2,11.4,17.9,22.3,17.9c10.9,0,20-7.6,22.3-17.9H1446.4z"/>
		<path fill="#82603B" d="M1446.4,826.6c2.3,10.2,11.4,17.9,22.3,17.9c10.9,0,20-7.6,22.3-17.9H1446.4z"/>
		<path fill="#82603B" d="M1446.4,914.7c2.3,10.2,11.4,17.9,22.3,17.9c10.9,0,20-7.6,22.3-17.9H1446.4z"/>
		<path fill="#82603B" d="M1446.4,1002.8c2.3,10.2,11.4,17.9,22.3,17.9c10.9,0,20-7.6,22.3-17.9H1446.4z"/>
		<path fill="#82603B" d="M1446.4,1090.9c2.3,10.2,11.4,17.9,22.3,17.9c10.9,0,20-7.6,22.3-17.9H1446.4z"/>
		<path fill="#82603B" d="M1491.8,697.1c2.3,10.2,11.4,17.9,22.3,17.9c10.9,0,20-7.6,22.3-17.9H1491.8z"/>
		<path fill="#82603B" d="M1491.8,785.2c2.3,10.2,11.4,17.9,22.3,17.9c10.9,0,20-7.6,22.3-17.9H1491.8z"/>
		<path fill="#82603B" d="M1491.8,873.2c2.3,10.2,11.4,17.9,22.3,17.9c10.9,0,20-7.6,22.3-17.9H1491.8z"/>
		<path fill="#82603B" d="M1491.8,961.3c2.3,10.2,11.4,17.9,22.3,17.9c10.9,0,20-7.6,22.3-17.9H1491.8z"/>
		<path fill="#82603B" d="M1491.8,1049.5c2.3,10.2,11.4,17.8,22.3,17.8c10.9,0,20-7.6,22.3-17.8H1491.8z"/>
		<path fill="#5CA14F" d="M1568,575.2v-78.8c-7.8,1.6-15.3,5.4-21.4,11.4l-71.4,71.4c-16.3,16.3-16.3,42.8,0,59.1l14.8,14.8
			l37.6-37.6l-11.5-28l28,11.5L1568,575.2z"/>
		<path fill="#40784A" d="M1497.8,631.1c0-25.3-20.5-45.8-45.8-45.8h-110.7c-25.3,0-45.8,20.5-45.8,45.8V654h36.4l12.8-30.7
			l12.8,30.7h56.5l12.8-30.7l12.8,30.7h58.3V631.1z"/>
		<path fill="#5CA14F" d="M1508.4,638.4c16.3-16.3,16.3-42.8,0-59.1l-71.5-71.4c-16.3-16.3-42.8-16.3-59.1,0l-14.8,14.8l23.5,23.5
			l28-11.5l-11.5,28l36.5,36.5l28-11.5l-11.5,28l37.6,37.6L1508.4,638.4z"/>
		<path fill="#40784A" d="M1568,585.2h-36.4c-25.3,0-45.8,20.5-45.8,45.8V654h58.3l12.8-30.7L1568,650V585.2z"/>
		<path fill="#5CA14F" d="M1516.5,630.4l-7.9-4.3c-22.2-12.2-50-4.1-62.2,18l-31.3,56.9c-12.2,22.2-4.1,50,18,62.2l7.9,4.3
			L1516.5,630.4z"/>
		<path fill="#5CA14F" d="M1568,700l-30.8-56c-12.2-22.2-40.1-30.2-62.2-18l-7.9,4.3l75.5,137.1l7.9-4.3
			c7.6-4.2,13.5-10.2,17.5-17.2V700z"/>
		<path fill="#78763A" d="M1497.2,611c0,16.6-13.5,30.1-30.1,30.1c-16.6,0-30.1-13.5-30.1-30.1c0-16.6,13.5-30.1,30.1-30.1
			C1483.7,581,1497.2,594.4,1497.2,611z"/>
		<path fill="#695A34" d="M1543.2,619.6c0,19-15.4,34.4-34.4,34.4c-19,0-34.4-15.4-34.4-34.4c0-19,15.4-34.4,34.4-34.4
			C1527.8,585.2,1543.2,600.6,1543.2,619.6z"/>
	</g>
	<g>
		<rect x="211.6" y="567.4" fill="#6C4B2C" width="51" height="502.3"/>
		<path fill="#82603B" d="M194.8,637.7c2.3,10.2,11.4,17.9,22.3,17.9c10.9,0,20-7.6,22.3-17.9H194.8z"/>
		<path fill="#82603B" d="M194.8,725.8c2.3,10.2,11.4,17.9,22.3,17.9c10.9,0,20-7.6,22.3-17.9H194.8z"/>
		<path fill="#82603B" d="M194.8,813.9c2.3,10.2,11.4,17.9,22.3,17.9c10.9,0,20-7.6,22.3-17.9H194.8z"/>
		<path fill="#82603B" d="M194.8,902c2.3,10.2,11.4,17.9,22.3,17.9c10.9,0,20-7.6,22.3-17.9H194.8z"/>
		<path fill="#82603B" d="M194.8,990.1c2.3,10.2,11.4,17.9,22.3,17.9c10.9,0,20-7.6,22.3-17.9H194.8z"/>
		<path fill="#82603B" d="M240.3,596.2c2.3,10.2,11.4,17.9,22.3,17.9c10.9,0,20-7.6,22.3-17.9H240.3z"/>
		<path fill="#82603B" d="M240.3,684.3c2.3,10.2,11.4,17.9,22.3,17.9c10.9,0,20-7.6,22.3-17.9H240.3z"/>
		<path fill="#82603B" d="M240.3,772.4c2.3,10.2,11.4,17.9,22.3,17.9c10.9,0,20-7.6,22.3-17.9H240.3z"/>
		<path fill="#82603B" d="M240.3,860.5c2.3,10.2,11.4,17.9,22.3,17.9c10.9,0,20-7.6,22.3-17.9H240.3z"/>
		<path fill="#82603B" d="M240.3,948.6c2.3,10.2,11.4,17.9,22.3,17.9c10.9,0,20-7.6,22.3-17.9H240.3z"/>
		<path fill="#5CA14F" d="M223.7,537.6c-16.3-16.3-16.3-42.8,0-59.1l71.4-71.4c16.3-16.3,42.8-16.3,59.1,0l14.8,14.8l-23.5,23.5
			l-28-11.5l11.5,28l-36.5,36.5l-28-11.5l11.5,28l-37.6,37.6L223.7,537.6z"/>
		<path fill="#40784A" d="M246.3,530.3c0-25.3-20.5-45.8-45.8-45.8H89.7c-25.3,0-45.8,20.5-45.8,45.8v22.9h36.4l12.8-30.7l12.8,30.7
			h56.5l12.8-30.7l12.8,30.7h58.3V530.3z"/>
		<path fill="#5CA14F" d="M256.9,537.6c16.3-16.3,16.3-42.8,0-59.1L185.4,407c-16.3-16.3-42.8-16.3-59.1,0l-14.8,14.8l23.5,23.5
			l28-11.5l-11.5,28l36.5,36.5l28-11.5l-11.5,28l37.6,37.6L256.9,537.6z"/>
		<path fill="#40784A" d="M234.3,530.3c0-25.3,20.5-45.8,45.8-45.8h110.7c25.3,0,45.8,20.5,45.8,45.8v22.9h-36.4l-12.8-30.7
			l-12.8,30.7h-56.6l-12.8-30.7l-12.8,30.7h-58.3V530.3z"/>
		<path fill="#5CA14F" d="M265,529.5l-7.9-4.3c-22.2-12.2-50-4.1-62.2,18l-31.3,56.9c-12.2,22.2-4.1,50,18,62.2l7.9,4.3L265,529.5z"
			/>
		<path fill="#5CA14F" d="M215.6,529.5l7.9-4.3c22.2-12.2,50-4.1,62.2,18l31.3,56.9c12.2,22.2,4.1,50-18,62.2l-7.9,4.3L215.6,529.5z
			"/>
		<path fill="#78763A" d="M245.6,510.2c0,16.6-13.5,30.1-30.1,30.1c-16.6,0-30.1-13.5-30.1-30.1c0-16.6,13.5-30.1,30.1-30.1
			C232.2,480.1,245.6,493.6,245.6,510.2z"/>
		<path fill="#695A34" d="M291.6,518.8c0,19-15.4,34.4-34.4,34.4c-19,0-34.4-15.4-34.4-34.4c0-19,15.4-34.4,34.4-34.4
			C276.3,484.4,291.6,499.8,291.6,518.8z"/>
	</g>
	<path fill="#FFD987" d="M0,1142.8V1400h1568v-248.5C1337.5,1124.8,729.2,1071.5,0,1142.8z"/>
	<path fill="#D6B670" d="M1061.8,1225.8c0-14.8-214-26.7-478-26.7c-264,0-478,12-478,26.7s214,26.7,478,26.7
		C847.9,1252.5,1061.8,1240.6,1061.8,1225.8z"/>
	<g>
		<g>
			<path fill="#FFFFFF" d="M1035.9,964.2l-41.4-147.1c0,0-1.9-14.8-12-32.1l-886.9-2.1c-1.7,6.8-2.8,14.5-2.8,23.3v210.3h973.4
				v-10.6C1066.2,1005.8,1064.4,970.4,1035.9,964.2z"/>
			<path fill="#EBEBEB" d="M978.9,779.3H96.6c-0.4,1.2-0.7,2.4-1,3.6l886.9,2.1C981.4,783.1,980.2,781.2,978.9,779.3z"/>
		</g>
		<path fill="#9E3845" d="M429,1129.4c-13.1-26.7-40.4-45.1-72.1-45.1c-31.7,0-59,18.4-72.1,45.1c-5.2,10.6-8.2,22.6-8.2,35.2h160.5
			C437.2,1151.9,434.2,1140,429,1129.4z"/>
		<path fill="#9E3845" d="M966.4,1129.4c-13.1-26.7-40.4-45.1-72.1-45.1c-31.7,0-59,18.4-72.1,45.1c-5.2,10.6-8.2,22.6-8.2,35.2
			h160.5C974.6,1151.9,971.6,1140,966.4,1129.4z"/>
		<path fill="#414042" d="M425.8,1164.6c0,38-30.8,68.9-68.9,68.9c-38,0-68.9-30.8-68.9-68.9s30.8-68.9,68.9-68.9
			C395,1095.7,425.8,1126.5,425.8,1164.6z"/>
		<path fill="#A2A4A6" d="M382,1131.6c5.3,7,8.5,15.6,8.5,25c0,22.9-18.6,41.4-41.4,41.4c-9.4,0-18.1-3.2-25-8.5
			c7.6,10,19.5,16.4,33,16.4c22.9,0,41.4-18.5,41.4-41.4C398.4,1151.1,391.9,1139.2,382,1131.6z"/>
		<path fill="#BCBEC0" d="M390.4,1156.6c0-9.4-3.2-18.1-8.5-25c-7-5.3-15.6-8.5-25-8.5c-22.9,0-41.4,18.6-41.4,41.4
			c0,9.4,3.2,18.1,8.5,25c7,5.3,15.6,8.5,25,8.5C371.9,1198,390.4,1179.5,390.4,1156.6z"/>
		<path fill="#DB4F5E" d="M867.3,732.4l-689.6,0.2c0,0-64.8-6.3-81.2,46.6h882.3C962.8,755.5,930.8,729.9,867.3,732.4z"/>
		<path fill="#DB4F5E" d="M92.8,1129.4h192.1c13.1-26.7,40.4-45.1,72.1-45.1c31.7,0,59,18.4,72.1,45.1h393.3
			c13.1-26.7,40.4-45.1,72.1-45.1c31.7,0,59,18.4,72.1,45.1h98.2c1-3.8,1.6-7.8,1.6-12.4v-100.5H92.8V1129.4z"/>
		<path fill="#C24554" d="M92.8,1129.4v35.2h183.8c0-12.6,3-24.6,8.2-35.2H92.8z"/>
		<path fill="#C24554" d="M429,1129.4c5.2,10.6,8.2,22.6,8.2,35.2H814c0-12.6,3-24.6,8.2-35.2H429z"/>
		<path fill="#C24554" d="M974.6,1164.6h45.3c0,0,36.7-4.6,44.7-35.2h-98.2C971.6,1140,974.6,1151.9,974.6,1164.6z"/>
		<path fill="#414042" d="M963.2,1164.6c0,38-30.8,68.9-68.9,68.9c-38,0-68.9-30.8-68.9-68.9s30.8-68.9,68.9-68.9
			C932.4,1095.7,963.2,1126.5,963.2,1164.6z"/>
		<path fill="#BCBEC0" d="M935.7,1164.6c0,22.9-18.5,41.4-41.4,41.4c-22.9,0-41.4-18.5-41.4-41.4c0-22.9,18.6-41.4,41.4-41.4
			C917.2,1123.1,935.7,1141.7,935.7,1164.6z"/>
		<path fill="#7EABF0" d="M311.8,815c0.8,2.1,1.3,4.3,1.3,6.6v131c0,10.3-8.4,18.6-18.6,18.6h-131c-2.3,0-4.6-0.5-6.6-1.3
			c2.7,7,9.4,12,17.4,12h131c10.3,0,18.6-8.4,18.6-18.6v-131C323.8,824.4,318.8,817.7,311.8,815z"/>
		<path fill="#7EABF0" d="M520.1,815c0.8,2.1,1.3,4.3,1.3,6.7v131c0,10.3-8.4,18.6-18.6,18.6h-131c-2.4,0-4.6-0.5-6.7-1.3
			c2.7,7,9.5,11.9,17.3,11.9h131c10.3,0,18.6-8.4,18.6-18.6v-131C532,824.5,527,817.7,520.1,815z"/>
		<path fill="#87B7FF" d="M502.7,971.4c10.3,0,18.6-8.4,18.6-18.6v-131c0-2.4-0.5-4.6-1.3-6.7c-2.1-0.8-4.3-1.3-6.7-1.3h-131
			c-10.3,0-18.6,8.4-18.6,18.6v131c0,2.4,0.5,4.6,1.3,6.7c2.1,0.8,4.3,1.3,6.7,1.3H502.7z"/>
		<path opacity="0.2" fill="#58595B" d="M751.8,1129.7H560.2V832.4c0-16.7,13.6-30.3,30.3-30.3h131c16.7,0,30.3,13.6,30.3,30.3
			V1129.7z M564.9,1125.1h182.3V832.4c0-14.1-11.5-25.6-25.6-25.6h-131c-14.1,0-25.6,11.5-25.6,25.6V1125.1z"/>
		<path fill="#7EABF0" d="M727.5,814.8c0.6,1.9,1.1,3.8,1.1,5.9v131c0,10.3-8.4,18.6-18.6,18.6h-131c-2.1,0-4.1-0.4-5.9-1.1
			c2.5,7.3,9.4,12.7,17.6,12.7h131c10.3,0,18.6-8.4,18.6-18.6v-131C740.2,824.2,734.8,817.3,727.5,814.8z"/>
		<path fill="#87B7FF" d="M709.9,970.4c10.3,0,18.6-8.4,18.6-18.6v-131c0-2.1-0.4-4.1-1.1-5.9c-1.9-0.6-3.8-1.1-5.9-1.1h-131
			c-10.3,0-18.6,8.4-18.6,18.6v131c0,2.1,0.4,4.1,1.1,5.9c1.9,0.6,3.8,1.1,5.9,1.1H709.9z"/>
		<path fill="#7EABF0" d="M999.2,964l-33.8-132.2c-1.7-6.6-6.9-12.3-13.1-15.5c0.6,1.2,1,2.4,1.3,3.7l33.8,132.2
			c2.5,9.9-3.8,18.1-14,18.1h-174c-2,0-4-0.4-5.8-1c2.5,7.4,9.4,12.8,17.6,12.8h174C995.4,982,1001.7,973.9,999.2,964z"/>
		<path fill="#87B7FF" d="M973.4,970.2c10.3,0,16.6-8.1,14-18.1L953.6,820c-0.3-1.3-0.8-2.5-1.3-3.7c-3.2-1.6-6.7-2.6-10.1-2.6h-131
			c-10.3,0-18.6,8.4-18.6,18.6v131c0,2,0.4,4,1,5.8c1.8,0.6,3.8,1,5.8,1H973.4z"/>
		<path opacity="0.2" fill="#58595B" d="M1011.4,1127.4h-37.8l-0.6-1.3c-14.9-30.3-45-49.2-78.7-49.2c-12.8,0-25.2,2.8-36.9,8.2
			l-0.5,0.2l-39.3-0.8c-26.7,0-35.7-22.2-36.7-33.9l0-0.9V832.4c0-16.7,13.6-30.3,30.3-30.3h131c15.5,0,30.7,11.8,34.5,26.8
			l33.9,133c0.3,2.3,0.5,4.7,0.6,7.1c0.4,6.8,0.2,12.8,0.2,13.5L1011.4,1127.4z M976.5,1122.8h30.2l0-140.4c0-0.7,0.2-6.5-0.2-13.1
			c-0.1-2.2-0.3-4.5-0.6-6.7L972.2,830c-3.3-13.1-16.5-23.3-30-23.3h-131c-14.1,0-25.6,11.5-25.6,25.6l0,218
			c0.9,10.2,8.8,29.6,32.1,29.6l38.2,0.8c12.2-5.6,25.1-8.4,38.4-8.4C929.3,1072.3,960.6,1091.6,976.5,1122.8z"/>
		<rect x="638.3" y="1032.3" fill="#D14B5A" width="95.6" height="21"/>
		<rect x="437.2" y="1032.3" fill="#D14B5A" width="95.6" height="21"/>
		<rect x="898.5" y="1032.3" fill="#D14B5A" width="95.6" height="21"/>
		<rect x="638.3" y="1077.3" fill="#D14B5A" width="95.6" height="21"/>
		<path fill="#A2A4A6" d="M919.3,1131.6c5.3,7,8.5,15.6,8.5,25c0,22.9-18.5,41.4-41.4,41.4c-9.4,0-18.1-3.2-25-8.5
			c7.6,10,19.5,16.4,33,16.4c22.9,0,41.4-18.5,41.4-41.4C935.7,1151.1,929.3,1139.2,919.3,1131.6z"/>
		<path fill="#87B7FF" d="M174.1,813.7c-10.3,0-18.6,8.4-18.6,18.6v96.4l123.2-115H174.1z"/>
		<path fill="#87B7FF" d="M155.5,963.6c0,2.3,0.5,4.4,1.3,6.4c2.1,0.8,4.3,1.3,6.6,1.3h131c10.3,0,18.6-8.4,18.6-18.6v-131
			c0-1.5-0.3-3-0.6-4.5L155.5,963.6z"/>
		<path fill="#ABCCFF" d="M311.8,815c-2.1-0.8-4.3-1.3-6.6-1.3h-26.4l-123.2,115v34.6c0,0.1,0,0.1,0,0.2l156.9-146.5
			C312.2,816.4,312,815.7,311.8,815z"/>
		<path fill="#ABCCFF" d="M520,815c-2.1-0.8-4.3-1.3-6.6-1.3h-26.4l-123.2,115v34.6c0,0.1,0,0.1,0,0.2l156.9-146.5
			C520.4,816.4,520.2,815.7,520,815z"/>
		<path fill="#ABCCFF" d="M728.2,815c-2.1-0.8-4.3-1.3-6.6-1.3h-26.4l-123.2,115v34.6c0,0.1,0,0.1,0,0.2l156.9-146.5
			C728.6,816.4,728.4,815.7,728.2,815z"/>
		<path fill="#ABCCFF" d="M948.8,815c-2.1-0.8-4.3-1.3-6.6-1.3h-26.4l-123.2,115v34.6c0,0.1,0,0.1,0,0.2l158.5-147.9L948.8,815z"/>
		<path fill="#414042" d="M1066.2,1003.5h-8.6c-9.6,0-17.4,7.8-17.4,17.4v46c0,9.6,7.8,17.4,17.4,17.4h8.6V1003.5z"/>
		<path fill="#FFF09E" d="M1061.8,1043.7c0,16.2-2.9,29.3-6.5,29.3s-6.5-13.1-6.5-29.3c0-16.2,2.9-29.3,6.5-29.3
			S1061.8,1027.5,1061.8,1043.7z"/>
		<g>
			<path fill="#FFFFFF" d="M1035.4,1135.7h41.6c0.2-0.6,0.4-1.1,0.4-1.7v-27c0-3.5-2.8-6.3-6.3-6.3h-43.5v28.7
				C1027.6,1129.4,1027.4,1135.7,1035.4,1135.7z"/>
			<path fill="#E0E0E0" d="M1035.4,1135.7c-8,0-7.8-6.3-7.8-6.3v-28.7h-0.4c-3.5,0-6.3,2.8-6.3,6.3v27c0,3.5,2.8,6.3,6.3,6.3h43.9
				c2.9,0,5.2-1.9,5.9-4.6H1035.4z"/>
		</g>
		<g>
			<path fill="#FFFFFF" d="M92.3,1135.7h41.6c0.2-0.6,0.4-1.1,0.4-1.7v-27c0-3.5-2.8-6.3-6.3-6.3H84.5v28.7
				C84.5,1129.4,84.3,1135.7,92.3,1135.7z"/>
			<path fill="#E0E0E0" d="M92.3,1135.7c-8,0-7.8-6.3-7.8-6.3v-28.7h-0.4c-3.5,0-6.3,2.8-6.3,6.3v27c0,3.5,2.8,6.3,6.3,6.3H128
				c2.9,0,5.2-1.9,5.9-4.6H92.3z"/>
		</g>
	</g>
	<path fill="#FFFFFF" d="M650.1,119.2h-25.2c0.1-1.2,0.4-2.4,0.4-3.6c0-22.9-18.6-41.5-41.5-41.5c-22.9,0-41.5,18.6-41.5,41.5
		c0,1.2,0.2,2.4,0.4,3.6h-25.2c-16.8,0-30.5,13.7-30.5,30.5c0,16.8,13.6,30.5,30.5,30.5h132.6c16.8,0,30.5-13.7,30.5-30.5
		C680.6,132.9,666.9,119.2,650.1,119.2z"/>
	<path fill="#FFFFFF" d="M826.1,264.9c0,17.3-14,31.4-31.3,31.4H606.5c-17.3,0-31.3-14-31.3-31.4l0,0c0-17.3,14-31.4,31.3-31.4
		h188.3C812.1,233.5,826.1,247.6,826.1,264.9L826.1,264.9z"/>
	<path fill="#FFFFFF" d="M783.9,153.7c0,14.6-11.9,26.5-26.5,26.5c-14.7,0-26.5-11.9-26.5-26.5c0-14.7,11.9-26.5,26.5-26.5
		C772,127.2,783.9,139.1,783.9,153.7z"/>
	<path fill="#D6B670" d="M1391.1,1269.9c0-4.5-22.5-8.2-50.3-8.2c-27.8,0-50.3,3.7-50.3,8.2c0,4.5,22.5,8.2,50.3,8.2
		C1368.6,1278.1,1391.1,1274.4,1391.1,1269.9z"/>
	<ellipse fill="#D6B670" cx="1268.5" cy="1188.5" rx="50.3" ry="8.2"/>
	<g>
		<path fill="#00ACC1" d="M1266.6,675.2c-28.7,63.5-57,199.5-26.3,485.6l46.9-520.6C1280.8,648.2,1273.7,659.4,1266.6,675.2z"/>
		<path fill="#FFFFFF" d="M1307.3,621.7c0,0-8.6,3.7-20.2,18.5l-46.9,520.6c0.5,4.3,0.9,8.4,1.4,12.8c0.4,3.5,0.8,7,1.2,10.5
			c0,0,0.3,1.5,1.4,2.5c0.5,0.4,1.1,0.8,2,0.9l12.4,1.1l51.2-568.3C1308.8,620.7,1308,621.2,1307.3,621.7z"/>
		<path fill="#FFFFFF" d="M1347.4,637.6c-6.5-10-11.6-13.3-11.6-13.3c-0.6-0.7-1.4-1.3-2.3-1.9l-51.2,568.3l4.4,0.4l6.1,0.6
			c0.8,0.1,1.6-0.2,2.1-0.5c1.3-0.8,1.8-2.2,1.8-2.2c1.3-4.3,2.6-8.5,3.9-12.7c1.9-6.3,3.7-12.4,5.5-18.5l46.1-511.8
			C1350.5,642.8,1348.9,640,1347.4,637.6z"/>
		<path fill="#00ACC1" d="M1366.1,684.4c-4.1-17-9.2-29.4-13.9-38.4l-46.1,511.8C1385.8,887.9,1382.7,751.3,1366.1,684.4z"/>
		<path fill="#00ACC1" d="M1322.2,616.6c0,0-7.5,1.4-12.4,3.7l-51.2,568.3l10.9,1l1.3,0.1l11.5,1.1l51.2-568.3
			C1329.1,619.2,1322.2,616.6,1322.2,616.6z"/>
	</g>
	<g>
		<g>
			<path fill="#F5F5F5" d="M1268.5,1219.7c7,18.4,20.8,33.4,38.3,42.1l3.9-7.9C1292.8,1247.9,1277.9,1235.7,1268.5,1219.7z"/>
		</g>
		<g>
			<path fill="#F5F5F5" d="M1412.2,1192.2h6.7c0-14.4-4-27.9-10.8-39.5c3.3,8.6,5.1,17.9,5.1,27.6
				C1413.1,1184.3,1412.8,1188.3,1412.2,1192.2z"/>
		</g>
		<g>
			<path fill="#F5F5F5" d="M1341.1,1257.7v12.1c30.6,0,57-17.7,69.7-43.3l-9.7-4.8C1388.3,1242,1366.4,1255.9,1341.1,1257.7z"/>
		</g>
		<g>
			<path fill="#EB664F" d="M1412.2,1192.2c-1.7,10.8-5.5,20.8-11.1,29.6l9.7,4.8c5.1-10.4,8-22,8-34.4H1412.2z"/>
		</g>
		<g>
			<path fill="#EB664F" d="M1335.4,1258c-8.6,0-17-1.4-24.7-4l-3.9,7.9c10.4,5.1,22,8,34.4,8v-12.1
				C1339.2,1257.9,1337.3,1258,1335.4,1258z"/>
		</g>
		<g>
			<path fill="#FF6E57" d="M1360.1,1153.7l15.4-31.3c-10.4-5.1-22-8-34.4-8v31.1C1348.2,1146.6,1354.7,1149.5,1360.1,1153.7z"/>
		</g>
		<g>
			<path fill="#FF6E57" d="M1323.6,1227.7l-12.9,26.2c7.8,2.6,16.1,4,24.7,4c1.9,0,3.8-0.1,5.7-0.2v-25.9
				C1334.8,1231.8,1328.8,1230.3,1323.6,1227.7z"/>
		</g>
		<g>
			<path fill="#FF6E57" d="M1298.2,1171l-26.8-13.2c-5.1,10.4-8,22-8,34.4h33c-0.4-2.4-0.7-4.8-0.7-7.3
				C1295.7,1179.9,1296.6,1175.3,1298.2,1171z"/>
		</g>
		<g>
			<path fill="#FFFFFF" d="M1335.4,1145.1c1.9,0,3.9,0.1,5.7,0.4v-31.1c-30.6,0-57,17.7-69.7,43.3l26.8,13.2
				C1303.8,1155.9,1318.3,1145.1,1335.4,1145.1z"/>
		</g>
		<g>
			<path fill="#FFFFFF" d="M1310.6,1253.9l12.9-26.2c-6.8-3.4-12.5-8.6-16.4-15.1c-5.4-5.5-9.3-12.6-10.8-20.5h-33
				c0,9.7,1.8,19,5.1,27.6C1277.9,1235.7,1292.8,1247.9,1310.6,1253.9z"/>
		</g>
		<g>
			<path fill="#FFFFFF" d="M1341.1,1231.8v25.9c25.3-1.8,47.1-15.7,60-36l-24.4-12C1370.2,1222.8,1356.7,1231.8,1341.1,1231.8z"/>
		</g>
		<g>
			<path fill="#FFFFFF" d="M1375.5,1122.5l-15.4,31.3c3.7,2.9,6.8,6.5,9.3,10.5c7.1,7.2,11.5,17,11.5,27.9h31.4
				c0.6-3.9,0.9-7.9,0.9-11.9c0-9.7-1.8-19-5.1-27.6C1400.4,1139.7,1389.1,1129.2,1375.5,1122.5z"/>
		</g>
		<g>
			<path fill="#FF6E57" d="M1376.7,1209.7l24.4,12c5.6-8.8,9.5-18.8,11.1-29.6h-31.4C1380.8,1198.5,1379.3,1204.4,1376.7,1209.7z"/>
		</g>
		<g>
			<path fill="#F5F5F5" d="M1369.3,1164.3c-2.4-4-5.6-7.6-9.3-10.5l-1.4,2.8C1362.6,1158.5,1366.3,1161.1,1369.3,1164.3z"/>
		</g>
		<g>
			<path fill="#F5F5F5" d="M1341.1,1152.5v-6.9c-1.9-0.3-3.8-0.4-5.7-0.4c-17.1,0-31.6,10.8-37.2,25.8l7.3,3.6
				C1312,1161.5,1325.5,1152.5,1341.1,1152.5z"/>
		</g>
		<g>
			<path fill="#F5F5F5" d="M1296.4,1192.2c1.5,7.9,5.3,15,10.8,20.5c-3.6-6-5.7-13-5.7-20.5H1296.4z"/>
		</g>
		<g>
			<path fill="#F06851" d="M1305.5,1174.6l-7.3-3.6c-1.6,4.3-2.5,9-2.5,13.8c0,2.5,0.2,5,0.7,7.3h5
				C1301.4,1185.9,1302.9,1179.9,1305.5,1174.6z"/>
		</g>
		<g>
			<path fill="#F06851" d="M1341.1,1152.5c6.3,0,12.3,1.5,17.6,4.1l1.4-2.8c-5.4-4.3-11.8-7.2-18.9-8.2V1152.5z"/>
		</g>
	</g>
</g>
</svg>
